Coordinates
version=1
nRows=14
nColumns=36
inDegrees=yes

Units are S.I. units (second, meters, Newtons, ...)
If the header above contains a line with 'inDegrees', this indicates whether rotational values are in degrees (yes) or radians (no).

endheader
time	pelvis_tilt	pelvis_list	pelvis_rotation	pelvis_tx	pelvis_ty	pelvis_tz	hip_flexion_r	hip_adduction_r	hip_rotation_r	knee_angle_r	knee_angle_r_beta	ankle_angle_r	subtalar_angle_r	mtp_angle_r	hip_flexion_l	hip_adduction_l	hip_rotation_l	knee_angle_l	knee_angle_l_beta	ankle_angle_l	subtalar_angle_l	mtp_angle_l	lumbar_extension	lumbar_bending	lumbar_rotation	arm_flex_r	arm_add_r	arm_rot_r	elbow_flex_r	pro_sup_r	arm_flex_l	arm_add_l	arm_rot_l	elbow_flex_l	pro_sup_l
      6.93333330	     -5.33290289	      0.69141835	      0.75969087	      1.16851541	      0.94065035	     -0.09344748	      5.09811065	      1.26131274	      4.61245764	      0.56444448	      0.00985141	      2.94459265	     -7.20131856	     -7.49999987	      8.55799793	      2.85706817	      5.97476383	      4.69327094	      0.08191303	      2.05865061	     -7.98899832	     -7.49999987	     -1.15905095	     -1.78930344	      4.32896787	     46.07608685	      6.83379384	     55.43103662	    116.66919868	     92.00406071	     38.48853150	      7.91194014	     44.22763564	    108.91471354	     87.25545650
      6.95000000	     -5.47938780	      0.75940527	      0.91691950	      1.16847718	      0.94045827	     -0.09396940	      5.32633553	      1.11460898	      4.37175872	      0.58563996	      0.01022135	      2.90017683	     -7.08067641	     -7.49999987	      8.80360056	      2.99526518	      6.03124484	      4.70409613	      0.08210197	      1.88855284	     -7.87358676	     -7.49999987	     -1.21665451	     -1.99102028	      4.42887899	     46.36310369	      7.23857511	     56.40750292	    117.66647116	     92.39859883	     38.02065774	      8.27022434	     40.57719887	    107.62814114	     87.26264319
      6.96666670	     -5.60578943	      0.75238117	      0.91535549	      1.16515351	      0.94460687	     -0.09693100	      5.60575764	      1.00685703	      4.18119423	      0.62743031	      0.01095072	      2.89976898	     -6.85018959	     -7.49999987	      9.01486488	      3.08617556	      6.00732007	      4.64063972	      0.08099444	      1.75445858	     -7.79261349	     -7.49999987	     -1.53734313	     -1.73396716	      4.09820443	     46.89437390	      7.92043331	     58.19589452	    117.69751121	     94.91417476	     37.04850740	      8.52396785	     37.22065147	    107.55066211	     88.28893539
      6.98333330	     -5.73607669	      0.75778642	      0.95278021	      1.16868140	      0.94200417	     -0.09372772	      5.82292337	      0.95638545	      4.15137042	      0.62773800	      0.01095609	      2.88389286	     -6.79911787	     -7.49999987	      9.13999436	      3.14008448	      6.05071278	      4.55770510	      0.07954696	      1.68003189	     -7.78256958	     -7.49999987	     -1.74967050	     -1.85600948	      4.71987976	     47.27662687	      8.50544870	     59.86544744	    118.24730387	     95.24782898	     36.41104011	      9.12878499	     36.15182406	    107.50113290	     88.22421885
      7.00000000	     -5.92509174	      0.75550491	      0.89641857	      1.16549864	      0.94403503	     -0.09673177	      6.14096654	      0.88772767	      4.02446579	      0.68185428	      0.01190060	      2.88758936	     -6.64110465	     -7.49999987	      9.27719477	      3.20326603	      6.04606045	      4.31592155	      0.07532704	      1.59982075	     -7.65977820	     -7.49999987	     -2.11847451	     -1.80399585	      5.13548669	     47.69304822	      8.95808558	     62.07525322	    118.15813590	     95.56122839	     35.24168797	     10.00671848	     38.57531454	    109.30524385	     88.22108665
      7.01666670	     -5.96410618	      0.73558182	      0.87011101	      1.16899161	      0.94435395	     -0.09406123	      6.23780445	      0.90427628	      3.97842607	      0.70751974	      0.01234855	      2.99743980	     -6.50218360	     -7.49999987	      9.20536713	      3.18545619	      6.21676112	      4.06618427	      0.07096830	      1.50444353	     -7.57496216	     -7.49999987	     -2.85808794	     -1.84209006	      4.98673559	     48.28955854	      9.50405477	     65.19595635	    117.62008275	     96.01172211	     33.70660058	     10.35608845	     44.41456706	    112.23139497	     87.95724602
      7.03333330	     -6.17588220	      0.67716785	      0.68491731	      1.16562090	      0.94522515	     -0.09643367	      6.57809322	      0.93407168	      3.95381467	      0.77943730	      0.01360375	      3.06161295	     -6.30655003	     -7.49999987	      9.27793758	      3.12909525	      6.16875065	      3.67669772	      0.06417048	      1.38683847	     -7.47462585	     -7.49999987	     -3.35456921	     -1.76216733	      4.95760958	     48.73411595	      9.57405031	     68.31482211	    116.81673794	     96.22420201	     32.96025732	     10.50620698	     50.47864305	    113.56599011	     87.83020636
      7.05000000	     -6.28756067	      0.62018374	      0.64482052	      1.16552138	      0.94487415	     -0.09681778	      6.76490603	      0.96216657	      3.90059500	      0.77877077	      0.01359211	      3.08634870	     -6.17336285	     -7.49999987	      9.26717368	      3.08396516	      6.30379826	      3.32271650	      0.05799234	      1.30648248	     -7.42735806	     -7.49999987	     -3.79841289	     -1.69338525	      5.22095816	     49.01180016	      8.93991304	     70.85942056	    116.04021234	     95.62549770	     33.41097035	     10.82514092	     56.50407201	    113.97618693	     82.59958851
      7.06666670	     -6.48390242	      0.58199184	      0.52343844	      1.16579440	      0.94439690	     -0.09630101	      7.03715372	      1.00410530	      3.91768840	      0.79612101	      0.01389493	      3.05612938	     -6.11665165	     -7.49999987	      9.34527255	      3.03433582	      6.45448769	      3.00014185	      0.05236235	      1.12945285	     -7.46788074	     -7.49999987	     -4.09437914	     -1.65532710	      5.17394918	     48.93124942	      8.44129992	     73.12981089	    114.33101120	     93.42776242	     33.94242034	     11.01938855	     60.96644484	    114.03716067	     80.22911286
      7.08333330	     -6.62288444	      0.46280822	      0.41866840	      1.16942207	      0.94168229	     -0.09321114	      7.17255116	      1.18162215	      3.84208258	      0.78629539	      0.01372344	      3.07350737	     -5.88590303	     -7.49999987	      9.30185636	      2.84044755	      6.53735597	      2.72385811	      0.04754029	      1.23104852	     -7.33266904	     -7.49999987	     -4.25000283	     -1.53840316	      4.92736986	     48.20409720	      7.78127864	     74.66157509	    112.57997779	     93.51747903	     34.16782246	     10.92280505	     64.11064083	    114.13037810	     80.32531298
      7.10000000	     -6.80408870	      0.39859560	      0.29015529	      1.16618043	      0.94099368	     -0.09584924	      7.45051363	      1.27436359	      3.71725669	      0.87413128	      0.01525647	      3.14766775	     -5.75436578	     -7.49999987	      9.42235556	      2.75280104	      6.56531322	      2.57592573	      0.04495839	      1.35178868	     -7.29112435	     -7.49999987	     -4.41951832	     -1.46520214	      4.63893926	     47.67361617	      6.83993186	     75.24303360	    110.33035766	     93.41055624	     34.67526542	     10.30171215	     66.40116752	    113.83490752	     80.21686948
      7.11666670	     -6.99796909	      0.35293436	      0.25777319	      1.16609843	      0.94090971	     -0.09635745	      7.71628854	      1.34835942	      3.66806496	      0.90663733	      0.01582381	      3.16290166	     -5.68937335	     -7.49999987	      9.58364347	      2.69035870	      6.69219986	      2.48194160	      0.04331805	      1.41802895	     -7.32518290	     -7.49999987	     -4.52895596	     -1.45776128	      4.54949348	     46.69946871	      5.57321834	     75.36231698	    108.22680636	     90.34995536	     34.69817458	      9.16503642	     68.38276208	    113.42036812	     75.96536724
      7.13333330	     -7.10015868	      0.31493575	      0.18815441	      1.16632889	      0.94352103	     -0.09628922	      7.87103933	      1.40335995	      3.59367796	      0.94248912	      0.01644954	      3.06532710	     -5.59655288	     -7.49999987	      9.63866315	      2.62190893	      6.70252516	      2.39728835	      0.04184057	      1.42078489	     -7.23850029	     -7.49999987	     -4.73557847	     -1.43750372	      4.51166918	     45.82343435	      4.58612506	     75.31815593	    106.28889240	     89.05341111	     34.14928587	      8.16830109	     69.62748392	    112.62499091	     74.66124524
      7.15000000	     -7.22262769	      0.24280527	      0.24406103	      1.16636765	      0.94322207	     -0.09690723	      8.04968932	      1.48162120	      3.32449414	      1.00688085	      0.01757339	      2.96712577	     -5.38810227	     -7.49999987	      9.74023687	      2.56782620	      6.94434036	      2.34290083	      0.04089133	      1.24566971	     -7.40938670	     -7.49999987	     -4.87166230	     -1.40472633	      4.32426742	     45.24092931	      3.98832032	     75.40862970	    105.58843261	     87.68089974	     33.38420867	      7.25812895	     70.36737617	    111.87218481	     74.03377799
